<?xml version="1.0" encoding="utf-8"?>
<!-- Generator: Adobe Illustrator 27.5.0, SVG Export Plug-In . SVG Version: 6.00 Build 0)  -->
<svg version="1.1" xmlns="http://www.w3.org/2000/svg" xmlns:xlink="http://www.w3.org/1999/xlink" x="0px" y="0px"
	 viewBox="0 0 500 500" style="enable-background:new 0 0 500 500;" xml:space="preserve">
<g id="Background_Simple">
	<g>
		<path style="fill:#92E3A9;" d="M482.767,243.253c-5.184,43.903-25.23,94.949-65.266,118.399
			c-60.491,35.438-55.428,89.944-173.499,113.64c-18.409,3.696-35.879,5.252-52.352,4.944c-8.855-0.164-17.428-0.878-25.695-2.095
			C90.913,467.179,40.414,415.018,21.886,352.053c-24.381-82.81,24.302-137.024,56.571-169.688
			c32.269-32.664,55.902-134.44,171.792-158.647c17.67-3.683,35.74-5.563,53.805-5.112c41.233,1.012,86.207,14.551,117.327,42.811
			c2.337,2.123,4.609,4.325,6.824,6.593C471.459,112.407,489.838,183.399,482.767,243.253z"/>
		<path style="opacity:0.7;fill:#FFFFFF;" d="M482.767,243.253c-5.184,43.903-25.23,94.949-65.266,118.399
			c-60.491,35.438-55.428,89.944-173.499,113.64c-18.409,3.696-35.879,5.252-52.352,4.944c-8.855-0.164-17.428-0.878-25.695-2.095
			C90.913,467.179,40.414,415.018,21.886,352.053c-24.381-82.81,24.302-137.024,56.571-169.688
			c32.269-32.664,55.902-134.44,171.792-158.647c17.67-3.683,35.74-5.563,53.805-5.112c41.233,1.012,86.207,14.551,117.327,42.811
			c2.337,2.123,4.609,4.325,6.824,6.593C471.459,112.407,489.838,183.399,482.767,243.253z"/>
	</g>
</g>
<g id="Buildings">
	<g>
		<polyline style="fill:none;stroke:#263238;stroke-linecap:round;stroke-linejoin:round;stroke-miterlimit:10;" points="
			17.626,330.786 31.484,330.786 31.484,300.3 47.004,300.3 47.004,318.591 55.873,318.591 55.873,220.481 73.61,220.481 
			73.61,270.367 91.902,270.367 91.902,290.322 111.302,290.322 111.302,269.259 126.823,269.259 126.823,306.397 136.8,306.397 
			136.8,216.046 160.081,216.046 160.081,307.505 170.612,307.505 170.612,217.155 191.121,217.155 191.121,270.922 
			228.813,270.922 228.813,249.859 253.757,249.859 253.757,268.705 293.666,268.705 293.666,280.899 287.015,280.899 
			287.015,295.311 307.524,295.311 307.524,282.562 337.456,282.562 337.456,239.327 374.039,239.327 374.039,323.026 
			395.657,323.026 395.657,295.865 429.469,295.865 437.784,304.18 457.738,304.18 457.738,265.933 477.139,265.933 
			477.139,339.655 		"/>
		
			<line style="fill:none;stroke:#263238;stroke-linecap:round;stroke-linejoin:round;stroke-miterlimit:10;" x1="73.61" y1="277.019" x2="88.576" y2="277.019"/>
		
			<line style="fill:none;stroke:#263238;stroke-linecap:round;stroke-linejoin:round;stroke-miterlimit:10;" x1="73.61" y1="283.671" x2="88.576" y2="283.671"/>
		
			<line style="fill:none;stroke:#263238;stroke-linecap:round;stroke-linejoin:round;stroke-miterlimit:10;" x1="73.61" y1="290.322" x2="88.576" y2="290.322"/>
		
			<line style="fill:none;stroke:#263238;stroke-linecap:round;stroke-linejoin:round;stroke-miterlimit:10;" x1="73.61" y1="296.974" x2="88.576" y2="296.974"/>
		
			<line style="fill:none;stroke:#263238;stroke-linecap:round;stroke-linejoin:round;stroke-miterlimit:10;" x1="73.61" y1="303.625" x2="88.576" y2="303.625"/>
		
			<line style="fill:none;stroke:#263238;stroke-linecap:round;stroke-linejoin:round;stroke-miterlimit:10;" x1="73.61" y1="310.277" x2="88.576" y2="310.277"/>
		
			<line style="fill:none;stroke:#263238;stroke-linecap:round;stroke-linejoin:round;stroke-miterlimit:10;" x1="59.199" y1="225.469" x2="59.199" y2="318.591"/>
		
			<line style="fill:none;stroke:#263238;stroke-linecap:round;stroke-linejoin:round;stroke-miterlimit:10;" x1="64.187" y1="225.469" x2="64.187" y2="318.591"/>
		
			<line style="fill:none;stroke:#263238;stroke-linecap:round;stroke-linejoin:round;stroke-miterlimit:10;" x1="69.176" y1="225.469" x2="69.176" y2="318.591"/>
		<polyline style="fill:none;stroke:#263238;stroke-linecap:round;stroke-linejoin:round;stroke-miterlimit:10;" points="
			130.149,329.123 45.896,329.123 45.896,336.329 126.269,336.329 		"/>
		<polyline style="fill:none;stroke:#263238;stroke-linecap:round;stroke-linejoin:round;stroke-miterlimit:10;" points="
			121.28,307.505 102.988,307.505 102.988,327.46 		"/>
		
			<line style="fill:none;stroke:#263238;stroke-linecap:round;stroke-linejoin:round;stroke-miterlimit:10;" x1="228.259" y1="277.019" x2="228.259" y2="330.786"/>
		
			<line style="fill:none;stroke:#263238;stroke-linecap:round;stroke-linejoin:round;stroke-miterlimit:10;" x1="253.757" y1="268.705" x2="253.757" y2="332.449"/>
		<polyline style="fill:none;stroke:#263238;stroke-linecap:round;stroke-linejoin:round;stroke-miterlimit:10;" points="
			337.456,282.562 337.456,311.385 306.969,311.385 306.969,303.625 		"/>
		
			<rect x="349.096" y="252.076" style="fill:none;stroke:#263238;stroke-linecap:round;stroke-linejoin:round;stroke-miterlimit:10;" width="23.835" height="3.88"/>
		
			<rect x="349.096" y="263.716" style="fill:none;stroke:#263238;stroke-linecap:round;stroke-linejoin:round;stroke-miterlimit:10;" width="23.835" height="3.88"/>
		
			<rect x="349.096" y="275.356" style="fill:none;stroke:#263238;stroke-linecap:round;stroke-linejoin:round;stroke-miterlimit:10;" width="23.835" height="3.88"/>
		
			<rect x="349.096" y="286.996" style="fill:none;stroke:#263238;stroke-linecap:round;stroke-linejoin:round;stroke-miterlimit:10;" width="23.835" height="3.88"/>
		
			<rect x="349.096" y="298.637" style="fill:none;stroke:#263238;stroke-linecap:round;stroke-linejoin:round;stroke-miterlimit:10;" width="23.835" height="3.88"/>
		
			<rect x="349.096" y="310.277" style="fill:none;stroke:#263238;stroke-linecap:round;stroke-linejoin:round;stroke-miterlimit:10;" width="23.835" height="3.88"/>
		<polyline style="fill:none;stroke:#263238;stroke-linecap:round;stroke-linejoin:round;stroke-miterlimit:10;" points="
			405.634,332.449 411.732,332.449 411.732,321.363 458.847,321.363 458.847,328.014 469.933,328.014 		"/>
		
			<line style="fill:none;stroke:#263238;stroke-linecap:round;stroke-linejoin:round;stroke-miterlimit:10;" x1="462.727" y1="272.585" x2="462.727" y2="313.048"/>
		
			<line style="fill:none;stroke:#263238;stroke-linecap:round;stroke-linejoin:round;stroke-miterlimit:10;" x1="467.716" y1="272.585" x2="467.716" y2="313.048"/>
		
			<line style="fill:none;stroke:#263238;stroke-linecap:round;stroke-linejoin:round;stroke-miterlimit:10;" x1="472.704" y1="272.585" x2="472.704" y2="313.048"/>
		<g>
			
				<rect x="257.083" y="284.572" style="fill:none;stroke:#263238;stroke-linecap:round;stroke-linejoin:round;stroke-miterlimit:10;" width="6.202" height="5.75"/>
			
				<rect x="267.42" y="284.572" style="fill:none;stroke:#263238;stroke-linecap:round;stroke-linejoin:round;stroke-miterlimit:10;" width="6.202" height="5.75"/>
			
				<rect x="277.758" y="284.572" style="fill:none;stroke:#263238;stroke-linecap:round;stroke-linejoin:round;stroke-miterlimit:10;" width="6.202" height="5.75"/>
		</g>
		<g>
			
				<rect x="257.083" y="296.819" style="fill:none;stroke:#263238;stroke-linecap:round;stroke-linejoin:round;stroke-miterlimit:10;" width="6.202" height="5.75"/>
			
				<rect x="267.42" y="296.819" style="fill:none;stroke:#263238;stroke-linecap:round;stroke-linejoin:round;stroke-miterlimit:10;" width="6.202" height="5.75"/>
			
				<rect x="277.758" y="296.819" style="fill:none;stroke:#263238;stroke-linecap:round;stroke-linejoin:round;stroke-miterlimit:10;" width="6.202" height="5.75"/>
		</g>
		<g>
			
				<rect x="257.083" y="309.066" style="fill:none;stroke:#263238;stroke-linecap:round;stroke-linejoin:round;stroke-miterlimit:10;" width="6.202" height="5.75"/>
			
				<rect x="267.42" y="309.066" style="fill:none;stroke:#263238;stroke-linecap:round;stroke-linejoin:round;stroke-miterlimit:10;" width="6.202" height="5.75"/>
			
				<rect x="277.758" y="309.066" style="fill:none;stroke:#263238;stroke-linecap:round;stroke-linejoin:round;stroke-miterlimit:10;" width="6.202" height="5.75"/>
		</g>
		
			<rect x="140.355" y="222.399" style="fill:none;stroke:#263238;stroke-linecap:round;stroke-linejoin:round;stroke-miterlimit:10;" width="4.549" height="5.117"/>
		
			<rect x="150.59" y="222.399" style="fill:none;stroke:#263238;stroke-linecap:round;stroke-linejoin:round;stroke-miterlimit:10;" width="4.549" height="5.117"/>
		
			<rect x="140.355" y="233.771" style="fill:none;stroke:#263238;stroke-linecap:round;stroke-linejoin:round;stroke-miterlimit:10;" width="4.549" height="5.117"/>
		
			<rect x="150.59" y="233.771" style="fill:none;stroke:#263238;stroke-linecap:round;stroke-linejoin:round;stroke-miterlimit:10;" width="4.549" height="5.117"/>
		
			<rect x="140.355" y="245.142" style="fill:none;stroke:#263238;stroke-linecap:round;stroke-linejoin:round;stroke-miterlimit:10;" width="4.549" height="5.117"/>
		
			<rect x="150.59" y="245.142" style="fill:none;stroke:#263238;stroke-linecap:round;stroke-linejoin:round;stroke-miterlimit:10;" width="4.549" height="5.117"/>
		
			<rect x="140.355" y="256.514" style="fill:none;stroke:#263238;stroke-linecap:round;stroke-linejoin:round;stroke-miterlimit:10;" width="4.549" height="5.117"/>
		
			<rect x="150.59" y="256.514" style="fill:none;stroke:#263238;stroke-linecap:round;stroke-linejoin:round;stroke-miterlimit:10;" width="4.549" height="5.117"/>
		
			<rect x="140.355" y="267.886" style="fill:none;stroke:#263238;stroke-linecap:round;stroke-linejoin:round;stroke-miterlimit:10;" width="4.549" height="5.117"/>
		
			<rect x="150.59" y="267.886" style="fill:none;stroke:#263238;stroke-linecap:round;stroke-linejoin:round;stroke-miterlimit:10;" width="4.549" height="5.117"/>
		
			<rect x="140.355" y="279.257" style="fill:none;stroke:#263238;stroke-linecap:round;stroke-linejoin:round;stroke-miterlimit:10;" width="4.549" height="5.117"/>
		
			<rect x="150.59" y="279.257" style="fill:none;stroke:#263238;stroke-linecap:round;stroke-linejoin:round;stroke-miterlimit:10;" width="4.549" height="5.117"/>
		
			<rect x="140.355" y="290.629" style="fill:none;stroke:#263238;stroke-linecap:round;stroke-linejoin:round;stroke-miterlimit:10;" width="4.549" height="5.117"/>
		
			<rect x="150.59" y="290.629" style="fill:none;stroke:#263238;stroke-linecap:round;stroke-linejoin:round;stroke-miterlimit:10;" width="4.549" height="5.117"/>
		
			<rect x="140.355" y="302.001" style="fill:none;stroke:#263238;stroke-linecap:round;stroke-linejoin:round;stroke-miterlimit:10;" width="4.549" height="5.117"/>
		
			<rect x="150.59" y="302.001" style="fill:none;stroke:#263238;stroke-linecap:round;stroke-linejoin:round;stroke-miterlimit:10;" width="4.549" height="5.117"/>
		
			<line style="fill:none;stroke:#263238;stroke-linecap:round;stroke-linejoin:round;stroke-miterlimit:10;" x1="190.959" y1="280.395" x2="221.094" y2="280.395"/>
		
			<line style="fill:none;stroke:#263238;stroke-linecap:round;stroke-linejoin:round;stroke-miterlimit:10;" x1="190.959" y1="291.766" x2="221.094" y2="291.766"/>
		
			<line style="fill:none;stroke:#263238;stroke-linecap:round;stroke-linejoin:round;stroke-miterlimit:10;" x1="190.959" y1="303.138" x2="221.094" y2="303.138"/>
		
			<line style="fill:none;stroke:#263238;stroke-linecap:round;stroke-linejoin:round;stroke-miterlimit:10;" x1="190.959" y1="314.509" x2="221.094" y2="314.509"/>
		
			<line style="fill:none;stroke:#263238;stroke-linecap:round;stroke-linejoin:round;stroke-miterlimit:10;" x1="190.959" y1="325.881" x2="221.094" y2="325.881"/>
	</g>
</g>
<g id="Clouds">
	<path style="fill:none;stroke:#263238;stroke-linecap:round;stroke-linejoin:round;stroke-miterlimit:10;" d="M114.251,181.464
		c-0.312-0.192-0.63-0.367-0.953-0.521c-4.968-2.366-8.99-0.473-11.356,3.076c-2.366,3.549-3.076,5.442-4.732,3.785
		c-1.656-1.656-4.259-4.022-8.044-1.893c-3.785,2.129-3.076,4.259-5.205,4.732c-2.129,0.473-3.549-1.656-6.861-0.947
		c-3.312,0.71-5.205,3.312-5.915,3.785c-0.71,0.473-6.388,2.603-6.388,2.603h73.579c0,0-1.183-6.624-4.968-8.517
		c-3.785-1.893-6.624,1.419-8.754,2.839c-2.129,1.42-2.603,0.237-2.603,0.237s-2.003-3.882-5.008-6.908"/>
	<path style="fill:none;stroke:#263238;stroke-linecap:round;stroke-linejoin:round;stroke-miterlimit:10;" d="M376.299,96.821
		c-0.809-0.499-1.634-0.952-2.471-1.35c-12.878-6.132-23.302-1.227-29.434,7.972c-6.132,9.198-7.972,14.104-12.265,9.812
		c-4.292-4.293-11.038-10.425-20.849-4.906c-9.811,5.519-7.972,11.038-13.491,12.264c-5.519,1.226-9.198-4.293-17.784-2.453
		c-8.585,1.84-13.491,8.585-15.331,9.812c-1.84,1.226-16.557,6.745-16.557,6.745H438.83c0,0-3.066-17.17-12.878-22.076
		c-9.812-4.906-17.17,3.679-22.689,7.359c-5.519,3.679-6.745,0.613-6.745,0.613s-5.193-10.061-12.98-17.905"/>
	<path style="fill:none;stroke:#263238;stroke-linecap:round;stroke-linejoin:round;stroke-miterlimit:10;" d="M172.421,58.773
		c-0.525-0.324-1.061-0.618-1.604-0.877c-8.362-3.982-15.131-0.796-19.113,5.176c-3.982,5.973-5.176,9.158-7.964,6.371
		c-2.787-2.787-7.167-6.769-13.538-3.186c-6.371,3.584-5.176,7.167-8.76,7.964c-3.584,0.796-5.973-2.787-11.548-1.593
		s-8.76,5.575-9.955,6.371c-1.195,0.796-10.751,4.38-10.751,4.38h123.836c0,0-1.991-11.149-8.362-14.335
		c-6.371-3.186-11.149,2.389-14.733,4.778c-3.584,2.389-4.38,0.398-4.38,0.398s-3.372-6.533-8.429-11.626"/>
	<path style="fill:none;stroke:#263238;stroke-linecap:round;stroke-linejoin:round;stroke-miterlimit:10;" d="M427.371,197.906
		c-0.525-0.324-1.061-0.618-1.604-0.877c-8.362-3.982-15.131-0.796-19.113,5.176c-3.982,5.973-5.177,9.158-7.964,6.371
		c-2.787-2.787-7.167-6.769-13.538-3.186c-6.371,3.583-5.176,7.167-8.76,7.964c-3.584,0.796-5.973-2.787-11.548-1.593
		c-5.574,1.195-8.76,5.575-9.955,6.371c-1.195,0.796-10.751,4.38-10.751,4.38h123.836c0,0-1.991-11.149-8.362-14.335
		c-6.371-3.186-11.149,2.389-14.733,4.778c-3.584,2.389-4.38,0.398-4.38,0.398s-3.372-6.533-8.429-11.626"/>
</g>
<g id="Sun">
	<g>
		<circle style="fill:#92E3A9;" cx="78.57" cy="124.739" r="24.331"/>
		<circle style="opacity:0.32;fill:#FFFFFF;" cx="78.57" cy="124.739" r="24.331"/>
		<circle style="fill:#92E3A9;" cx="78.57" cy="124.739" r="15.69"/>
	</g>
</g>
<g id="Lake">
	<g>
		<g>
			<g>
				
					<line style="fill:none;stroke:#263238;stroke-linecap:round;stroke-linejoin:round;stroke-miterlimit:10;" x1="52.491" y1="358.533" x2="86.856" y2="358.534"/>
				
					<line style="fill:none;stroke:#263238;stroke-linecap:round;stroke-linejoin:round;stroke-miterlimit:10;" x1="114.461" y1="362.365" x2="66.575" y2="362.363"/>
				
					<line style="fill:none;stroke:#263238;stroke-linecap:round;stroke-linejoin:round;stroke-miterlimit:10;" x1="31.083" y1="368.927" x2="55.308" y2="368.928"/>
				
					<line style="fill:none;stroke:#263238;stroke-linecap:round;stroke-linejoin:round;stroke-miterlimit:10;" x1="67.702" y1="368.382" x2="80.096" y2="368.382"/>
				
					<line style="fill:none;stroke:#263238;stroke-linecap:round;stroke-linejoin:round;stroke-miterlimit:10;" x1="267.695" y1="358.542" x2="302.06" y2="358.544"/>
				
					<line style="fill:none;stroke:#263238;stroke-linecap:round;stroke-linejoin:round;stroke-miterlimit:10;" x1="305.44" y1="362.374" x2="257.554" y2="362.372"/>
				
					<line style="fill:none;stroke:#263238;stroke-linecap:round;stroke-linejoin:round;stroke-miterlimit:10;" x1="229.95" y1="364.559" x2="182.064" y2="364.557"/>
				
					<line style="fill:none;stroke:#263238;stroke-linecap:round;stroke-linejoin:round;stroke-miterlimit:10;" x1="222.062" y1="368.936" x2="246.287" y2="368.937"/>
				
					<line style="fill:none;stroke:#263238;stroke-linecap:round;stroke-linejoin:round;stroke-miterlimit:10;" x1="258.681" y1="368.39" x2="271.075" y2="368.391"/>
				
					<line style="fill:none;stroke:#263238;stroke-linecap:round;stroke-linejoin:round;stroke-miterlimit:10;" x1="179.247" y1="358.538" x2="149.256" y2="358.537"/>
				
					<line style="fill:none;stroke:#263238;stroke-linecap:round;stroke-linejoin:round;stroke-miterlimit:10;" x1="243.471" y1="358.541" x2="185.875" y2="358.539"/>
				
					<line style="fill:none;stroke:#263238;stroke-linecap:round;stroke-linejoin:round;stroke-miterlimit:10;" x1="125.165" y1="362.366" x2="166.956" y2="362.368"/>
				
					<line style="fill:none;stroke:#263238;stroke-linecap:round;stroke-linejoin:round;stroke-miterlimit:10;" x1="81.221" y1="394.645" x2="123.012" y2="394.647"/>
				
					<line style="fill:none;stroke:#263238;stroke-linecap:round;stroke-linejoin:round;stroke-miterlimit:10;" x1="165.972" y1="368.386" x2="155.156" y2="368.386"/>
				
					<line style="fill:none;stroke:#263238;stroke-linecap:round;stroke-linejoin:round;stroke-miterlimit:10;" x1="302.305" y1="384.806" x2="291.488" y2="384.806"/>
				
					<line style="fill:none;stroke:#263238;stroke-linecap:round;stroke-linejoin:round;stroke-miterlimit:10;" x1="142.31" y1="388.082" x2="131.494" y2="388.082"/>
				
					<line style="fill:none;stroke:#263238;stroke-linecap:round;stroke-linejoin:round;stroke-miterlimit:10;" x1="454.167" y1="358.55" x2="488.533" y2="358.552"/>
				
					<line style="fill:none;stroke:#263238;stroke-linecap:round;stroke-linejoin:round;stroke-miterlimit:10;" x1="491.912" y1="362.382" x2="444.027" y2="362.38"/>
				
					<line style="fill:none;stroke:#263238;stroke-linecap:round;stroke-linejoin:round;stroke-miterlimit:10;" x1="90.799" y1="386.439" x2="42.913" y2="386.436"/>
				
					<line style="fill:none;stroke:#263238;stroke-linecap:round;stroke-linejoin:round;stroke-miterlimit:10;" x1="360.085" y1="383.715" x2="312.199" y2="383.712"/>
				
					<line style="fill:none;stroke:#263238;stroke-linecap:round;stroke-linejoin:round;stroke-miterlimit:10;" x1="332.48" y1="396.845" x2="284.594" y2="396.842"/>
				
					<line style="fill:none;stroke:#263238;stroke-linecap:round;stroke-linejoin:round;stroke-miterlimit:10;" x1="416.422" y1="364.567" x2="368.536" y2="364.565"/>
				
					<line style="fill:none;stroke:#263238;stroke-linecap:round;stroke-linejoin:round;stroke-miterlimit:10;" x1="408.535" y1="368.944" x2="432.759" y2="368.945"/>
				
					<line style="fill:none;stroke:#263238;stroke-linecap:round;stroke-linejoin:round;stroke-miterlimit:10;" x1="445.153" y1="368.398" x2="457.547" y2="368.399"/>
				
					<line style="fill:none;stroke:#263238;stroke-linecap:round;stroke-linejoin:round;stroke-miterlimit:10;" x1="457.546" y1="393.567" x2="469.94" y2="393.568"/>
				
					<line style="fill:none;stroke:#263238;stroke-linecap:round;stroke-linejoin:round;stroke-miterlimit:10;" x1="365.72" y1="358.546" x2="335.729" y2="358.545"/>
				
					<line style="fill:none;stroke:#263238;stroke-linecap:round;stroke-linejoin:round;stroke-miterlimit:10;" x1="429.943" y1="358.549" x2="372.347" y2="358.547"/>
				
					<line style="fill:none;stroke:#263238;stroke-linecap:round;stroke-linejoin:round;stroke-miterlimit:10;" x1="458.11" y1="380.983" x2="400.514" y2="380.98"/>
				
					<line style="fill:none;stroke:#263238;stroke-linecap:round;stroke-linejoin:round;stroke-miterlimit:10;" x1="487.404" y1="405.058" x2="410.653" y2="405.055"/>
				
					<line style="fill:none;stroke:#263238;stroke-linecap:round;stroke-linejoin:round;stroke-miterlimit:10;" x1="85.728" y1="405.041" x2="8.977" y2="405.038"/>
				
					<line style="fill:none;stroke:#263238;stroke-linecap:round;stroke-linejoin:round;stroke-miterlimit:10;" x1="311.637" y1="362.374" x2="353.428" y2="362.376"/>
				
					<line style="fill:none;stroke:#263238;stroke-linecap:round;stroke-linejoin:round;stroke-miterlimit:10;" x1="352.445" y1="368.394" x2="341.628" y2="368.394"/>
			</g>
			
				<line style="fill:#FFFFFF;stroke:#263238;stroke-linecap:round;stroke-linejoin:round;stroke-miterlimit:10;" x1="50.757" y1="448.147" x2="138.06" y2="448.151"/>
			
				<line style="fill:#FFFFFF;stroke:#263238;stroke-linecap:round;stroke-linejoin:round;stroke-miterlimit:10;" x1="266.358" y1="455.529" x2="198.034" y2="455.526"/>
			
				<line style="fill:#FFFFFF;stroke:#263238;stroke-linecap:round;stroke-linejoin:round;stroke-miterlimit:10;" x1="188.164" y1="464.373" x2="106.934" y2="464.37"/>
			
				<line style="fill:#FFFFFF;stroke:#263238;stroke-linecap:round;stroke-linejoin:round;stroke-miterlimit:10;" x1="381.751" y1="456.271" x2="444.761" y2="456.274"/>
			
				<line style="fill:#FFFFFF;stroke:#263238;stroke-linecap:round;stroke-linejoin:round;stroke-miterlimit:10;" x1="376.436" y1="463.644" x2="330.127" y2="463.642"/>
			
				<line style="fill:#FFFFFF;stroke:#263238;stroke-linecap:round;stroke-linejoin:round;stroke-miterlimit:10;" x1="352.902" y1="470.279" x2="246.619" y2="470.274"/>
			
				<line style="fill:#FFFFFF;stroke:#263238;stroke-linecap:round;stroke-linejoin:round;stroke-miterlimit:10;" x1="310.39" y1="446.683" x2="343.793" y2="446.685"/>
			
				<line style="fill:#FFFFFF;stroke:#263238;stroke-linecap:round;stroke-linejoin:round;stroke-miterlimit:10;" x1="37.093" y1="426.764" x2="67.459" y2="426.766"/>
		</g>
		<g>
			
				<line style="fill:none;stroke:#263238;stroke-linecap:round;stroke-linejoin:round;stroke-miterlimit:10;" x1="465.895" y1="351.589" x2="487.574" y2="351.59"/>
			
				<line style="fill:none;stroke:#263238;stroke-linecap:round;stroke-linejoin:round;stroke-miterlimit:10;" x1="17.849" y1="351.57" x2="458.67" y2="351.589"/>
		</g>
	</g>
</g>
<g id="Boat">
	<g>
		<g>
			<path style="fill:#263238;stroke:#263238;stroke-linecap:round;stroke-linejoin:round;stroke-miterlimit:10;" d="
				M222.969,110.289c0,0-34.656,71.263-55.354,133.993c-17.717,53.695-49.643,155.08-49.643,155.08s36.024-3.954,53.158-10.104
				s43.053-19.33,43.053-19.33s-16.529-45.59-22.845-104.119c-3.606-33.42,2.197-73.367,5.272-84.789
				C199.685,169.598,222.969,110.289,222.969,110.289z"/>
			<g>
				<polyline style="fill:none;stroke:#263238;stroke-linecap:round;stroke-linejoin:round;stroke-miterlimit:10;" points="
					226.238,62.095 229.572,62.095 374.459,396.292 				"/>
				<path style="fill:#FFFFFF;stroke:#263238;stroke-linecap:round;stroke-linejoin:round;stroke-miterlimit:10;" d="
					M225.165,74.705c0,0,17.573,86.546,37.782,144.097c20.209,57.551,62.823,153.323,62.823,153.323l-110.449,1.588L225.165,74.705z
					"/>
				
					<line style="fill:none;stroke:#263238;stroke-width:4;stroke-linecap:round;stroke-linejoin:round;stroke-miterlimit:10;" x1="224.928" y1="58.958" x2="213.491" y2="397.045"/>
				
					<line style="fill:none;stroke:#263238;stroke-width:4;stroke-linecap:round;stroke-linejoin:round;stroke-miterlimit:10;" x1="215.321" y1="373.713" x2="332.439" y2="372.34"/>
			</g>
		</g>
		<path style="fill:none;stroke:#263238;stroke-linecap:round;stroke-linejoin:round;stroke-miterlimit:10;" d="M361.013,406.108
			c0,0-14.829-3.365-17.384-3.801c-2.555-0.436-5.421-0.374-5.732,0.062c-0.311,0.436-0.374,1.246-0.187,1.246
			c0.187,0,4.673-0.249,6.106,0.187c1.433,0.436,16.574,3.676,16.574,3.676L361.013,406.108z"/>
		<g>
			<path style="fill:#FFFFFF;stroke:#263238;stroke-linecap:round;stroke-linejoin:round;stroke-miterlimit:10;" d="
				M361.018,381.732c0,0-1.841,0.92-2.352,1.841c-0.511,0.92-0.511,3.17-0.613,3.579c-0.102,0.409-0.102,0.716,0.409,0.92
				c0.511,0.204,0.511,0.204,0.511,0.204s-0.102,2.045,0.511,2.352c0.613,0.307,2.045,0,2.045,0l0.613,1.125l4.09-2.659
				l-0.818-2.147c0,0,1.329-2.352,0.511-3.783C365.108,381.732,362.552,381.323,361.018,381.732z"/>
			<path style="fill:none;stroke:#263238;stroke-linecap:round;stroke-linejoin:round;stroke-miterlimit:10;" d="M361.018,386.742
				c0,0,1.125-1.738,1.534-0.511c0.409,1.227,0.511,2.045-0.102,2.045c-0.614,0-0.614,0-0.614,0"/>
			<path style="fill:#92E3A9;stroke:#263238;stroke-linecap:round;stroke-linejoin:round;stroke-miterlimit:10;" d="
				M366.233,389.094l-4.09,2.659c0,0-1.636,5.317-1.636,7.055c0,1.738,0.409,4.704,0.409,4.704l-1.125,6.749l11.248,0.716
				c0,0,0.716-1.227,0.92-3.374s-0.204-11.248-0.92-13.293C370.323,392.264,366.233,389.094,366.233,389.094z"/>
			<path style="fill:#FFFFFF;stroke:#263238;stroke-linecap:round;stroke-linejoin:round;stroke-miterlimit:10;" d="
				M354.985,401.262l-4.397,0.307c0,0-1.841,1.943-1.943,2.249c-0.102,0.307,0.466,0.607,0.716,0.42
				c0.249-0.187,0.81-0.81,0.81-0.81s-1.059,1.62-0.312,1.682c0.748,0.062,1.184-0.81,1.184-0.81s-0.249,1.433,0.187,1.184
				c0.436-0.249,1.246-1.994,1.246-1.994l2.118-0.187L354.985,401.262z"/>
			<path style="fill:#92E3A9;stroke:#263238;stroke-linecap:round;stroke-linejoin:round;stroke-miterlimit:10;" d="
				M363.881,393.082c0,0-0.613,0.716-1.125,2.25c-0.511,1.534-1.023,6.749-1.023,6.749l-6.749-0.818l-0.409,3.068
				c0,0,9.714,1.431,10.225,1.431c0.511,0,3.272-8.794,3.272-8.794"/>
		</g>
		<path style="fill:#FFFFFF;stroke:#263238;stroke-linecap:round;stroke-linejoin:round;stroke-miterlimit:10;" d="M367.742,410.656
			c0,0-0.062-1.62-0.748-2.305c-0.685-0.685-5.732-2.742-6.729-2.928c-0.997-0.187-4.112,4.611-4.112,4.611L367.742,410.656z"/>
		<g>
			<g>
				<path style="fill:#92E3A9;stroke:#263238;stroke-linecap:round;stroke-linejoin:round;stroke-miterlimit:10;" d="
					M169.425,403.819c0,0,50.342-11.575,53.649-11.942c3.307-0.368,44.646,1.47,45.932,2.021c1.286,0.551,2.572,6.982,2.572,6.982
					s4.777,0.735,6.431,2.388c1.654,1.654,3.307,5.328,3.307,5.328L169.425,403.819z"/>
				<polygon style="fill:#263238;stroke:#263238;stroke-linecap:round;stroke-linejoin:round;stroke-miterlimit:10;" points="
					231.709,396.47 220.134,401.615 257.432,403.452 261.106,401.247 261.106,397.94 				"/>
			</g>
			<polygon style="fill:#92E3A9;stroke:#263238;stroke-linecap:round;stroke-linejoin:round;stroke-miterlimit:10;" points="
				113.531,398.504 133.697,432.817 375.093,432.817 376.297,411.145 			"/>
			<polygon style="fill:#FFFFFF;stroke:#263238;stroke-linecap:round;stroke-linejoin:round;stroke-miterlimit:10;" points="
				376.297,411.145 383.22,411.145 388.337,432.817 377.501,432.817 			"/>
			<path style="fill:#263238;stroke:#263238;stroke-linecap:round;stroke-linejoin:round;stroke-miterlimit:10;" d="
				M391.368,394.907c0,0-1.701-0.957-1.914,0.425c-0.213,1.382-0.106,4.678-0.532,5.529c-0.425,0.851-0.851,1.169-0.851,1.169
				s-8.08-1.914-8.293-1.276c-0.213,0.638,0,1.169,0.532,1.169c0.532,0,9.781,2.552,10.419,2.764
				c0.638,0.213,1.063-0.106,1.488-0.106c0.425,0,1.063,0.532,0.851,0.957c-0.213,0.425-1.169,1.063-1.169,1.063
				s-2.977-1.169-3.721-0.106c-0.744,1.063-2.233,5.741-1.595,5.848c0.638,0.106,5.529,0.319,5.635,0.85
				c0.106,0.532,0.425,1.382-0.213,1.382c-0.638,0-1.276,0.213-1.276,0.213l-0.85,17.649h6.698c0,0-0.319-1.595-0.957-2.233
				s-1.382-1.595-1.382-1.595s0.957-19.775,1.063-20.626c0.106-0.85,0.744-1.914,1.276-2.126c0.532-0.213,6.698-1.276,7.017-1.382
				c0.319-0.106,0.638-4.997,0.425-5.741c-0.213-0.744-1.488-3.083-1.914-3.19C401.681,395.439,391.368,394.907,391.368,394.907z"/>
			
				<line style="fill:#FFFFFF;stroke:#263238;stroke-linecap:round;stroke-linejoin:round;stroke-miterlimit:10;" x1="383.607" y1="402.668" x2="376.297" y2="411.145"/>
			
				<line style="fill:#FFFFFF;stroke:#263238;stroke-linecap:round;stroke-linejoin:round;stroke-miterlimit:10;" x1="385.095" y1="403.519" x2="383.22" y2="411.145"/>
			<path style="fill:none;stroke:#263238;stroke-linecap:round;stroke-linejoin:round;stroke-miterlimit:10;" d="M374.459,410.724
				v-14.432c0-1.032-0.837-1.869-1.869-1.869h-4.844c-0.663,0-1.276,0.351-1.612,0.923l-8.857,15.085"/>
			<polyline style="fill:none;stroke:#263238;stroke-linecap:round;stroke-linejoin:round;stroke-miterlimit:10;" points="
				113.531,398.504 102.915,376.627 266.251,389.856 366.134,395.346 			"/>
			
				<line style="fill:none;stroke:#263238;stroke-linecap:round;stroke-linejoin:round;stroke-miterlimit:10;" x1="128.27" y1="378.832" x2="138.191" y2="399.594"/>
			
				<line style="fill:none;stroke:#263238;stroke-linecap:round;stroke-linejoin:round;stroke-miterlimit:10;" x1="195.698" y1="384.344" x2="195.882" y2="402.166"/>
			
				<line style="fill:none;stroke:#263238;stroke-linecap:round;stroke-linejoin:round;stroke-miterlimit:10;" x1="266.251" y1="389.856" x2="265.699" y2="406.208"/>
			<polygon style="fill:#263238;stroke:#263238;stroke-linecap:round;stroke-linejoin:round;stroke-miterlimit:10;" points="
				375.093,432.817 375.399,427.315 128.46,423.907 133.697,432.817 			"/>
		</g>
		<g>
			<path style="fill:#92E3A9;stroke:#263238;stroke-linecap:round;stroke-linejoin:round;stroke-miterlimit:10;" d="
				M358.426,382.138c0,0-0.561,1.286-0.816,1.525c-0.255,0.238-2.397,0.715-2.397,0.715s3.264,1.62,8.363,2.191
				c0,0,1.683,0.476,2.295,0.429c0.612-0.048,3.147-0.21,3.147-0.21s-1.692-1.557-2.1-2.415c-0.408-0.858-0.129-1.806-0.945-3.187
				c-0.816-1.382-2.116-2.053-3.213-1.906c-1.766,0.237-3.334,1.135-3.742,1.659C358.611,381.463,358.426,382.138,358.426,382.138z"
				/>
			<g>
				<path style="fill:#263238;" d="M366.919,385.094c0,0-1.901,0-3.644-0.053c-1.807-0.055-5.439-1.139-5.593-1.185l0.415-1.383
					c0.036,0.011,3.604,1.077,5.22,1.125c1.722,0.053,3.601,0.053,3.601,0.053V385.094z"/>
			</g>
		</g>
	</g>
	<g>
		<path style="fill:#FFFFFF;stroke:#263238;stroke-linecap:round;stroke-linejoin:round;stroke-miterlimit:10;" d="M476.612,433.203
			l-17.067-1.43c0,0-4.308-0.357-9.279-1.43c-4.971-1.073-4.64,0-7.291,0.715c-2.651,0.715-5.965,0-10.273-1.073
			c-4.308-1.073-9.61,0.358-14.581,1.43c-4.971,1.072-9.279-0.358-15.575-2.503c-6.296-2.145-8.285,1.43-14.25,1.788
			c-5.965,0.358-9.942-3.932-19.221-6.078c-9.279-2.145-10.273,3.218-19.883,6.793c-9.61,3.575-12.924-5.72-20.877-7.15
			c-7.162-1.288-18.471,7.229-20.651,8.938H476.612z"/>
		<path style="fill:#FFFFFF;stroke:#263238;stroke-linecap:round;stroke-linejoin:round;stroke-miterlimit:10;" d="M303.021,433.203
			l-17.067-1.43c0,0-4.308-0.357-9.279-1.43c-4.971-1.073-4.639,0-7.29,0.715c-2.651,0.715-5.965,0-10.273-1.073
			c-4.308-1.073-9.61,0.358-14.581,1.43c-4.971,1.072-9.279-0.358-15.575-2.503c-6.296-2.145-8.285,1.43-14.25,1.788
			c-5.965,0.358-9.942-3.932-19.221-6.078c-9.279-2.145-10.273,3.218-19.883,6.793c-9.61,3.575-12.924-5.72-20.878-7.15
			c-7.162-1.288-18.471,7.229-20.652,8.938H303.021z"/>
	</g>
</g>
</svg>
